<?xml version="1.0" standalone="no"?><!DOCTYPE svg PUBLIC "-//W3C//DTD SVG 1.1//EN" "http://www.w3.org/Graphics/SVG/1.1/DTD/svg11.dtd"><svg t="1721098093128" class="icon" viewBox="0 0 1024 1024" version="1.1" xmlns="http://www.w3.org/2000/svg" p-id="7060" data-spm-anchor-id="a313x.search_index.0.i0.411a3a81RNLYG7" xmlns:xlink="http://www.w3.org/1999/xlink" width="128" height="128"><path d="M772.6 484.7c12.3 36.1 19.2 74.6 19.7 114.7 2.4 203.4-161.1 371.4-364.5 374.3-206.5 2.9-375.3-164.1-375.3-369.9 0-124.3 61.6-234.5 156-301.6 11.7-8.3 13.9-24.8 4.9-36.1-8.3-10.4-23.3-12.5-34.1-4.8-19.1 13.6-37 28.7-53.8 45.5-38.6 38.6-68.8 83.5-90 133.5-21.9 51.8-33 106.8-33 163.4s11.1 111.7 33 163.4c21.1 50 51.4 94.9 90 133.5 38.6 38.6 83.5 68.8 133.5 90 51.8 21.9 106.8 33 163.4 33s111.7-11.1 163.4-33c50-21.1 94.9-51.4 133.5-90 38.6-38.6 68.8-83.5 90-133.5 21.9-51.8 33-106.8 33-163.4 0-54.8-10.4-108-30.8-158.2l-38.9 39.2z" fill="#8a8a8a" p-id="7061" data-spm-anchor-id="a313x.search_index.0.i4.411a3a81RNLYG7" class=""></path><path d="M410.4 635.2c-4.2 0-10.6-2.1-12.7-6.3-4.2-2.1-6.3-6.3-6.3-10.6l6.3-208.9c0-4.2 2.1-8.4 6.3-12.7L779.7 19c23.2-23.2 59.1-23.2 80.2 0l147.7 149.8c10.6 10.6 16.9 23.2 16.9 40.1 0 14.8-6.3 29.5-16.9 40.1L699.5 559.2c-8.4 8.4-19 8.4-27.4 0-8.4-8.4-8.4-19 0-27.4l308.1-310.2c4.2-4.2 6.3-8.4 6.3-12.7 0-4.2-2.1-10.6-6.3-12.7L832.5 48.5c-8.4-8.4-19-8.4-27.4 0L435.7 419.9l-6.3 181.5 187.8-2.1c10.6-2.1 19 8.4 19 19s-8.4 14.8-19 14.8l-206.8 2.1z m208.9-2.1c-4.2 0-10.6-2.1-12.7-6.3L404 424.2c-8.4-8.4-8.4-19 0-27.4 8.4-8.4 19-8.4 27.4 0L632 599.3c8.4 8.4 8.4 19 0 27.4-4.3 4.3-8.5 6.4-12.7 6.4z m-54.9-189.9c-4.2 0-10.6-2.1-12.7-6.3-8.4-8.4-8.4-19 0-27.4L887.3 71.7c8.4-8.4 19-8.4 27.4 0 8.4 8.4 8.4 19 0 27.4L579.2 436.8c-4.2 4.3-10.5 6.4-14.8 6.4z m0 0" fill="#1296db" p-id="7062" data-spm-anchor-id="a313x.search_index.0.i1.411a3a81RNLYG7" class=""></path></svg>